# xmcd
#
# Track frame offsets:
#	150
#	14641
#	26425
#	41853
#	55912
#	74962
#	91784
#	104297
#	122351
#	136483
#	146877
#	161569
#	175828
#
# Disc length: 2479 seconds
#
# Revision: 0
# Processed by: cddbd v1.5.2PL0 Copyright (c) Steve Scherf et al.
# Submitted via: dBpowerAMP V4.0
#
DISCID=bb09ad0d
DTITLE=John Swayne - ...waiting to hear from you
DYEAR=2000
DGENRE=Acoustic
TTITLE0=It Isn't My Call
TTITLE1=Bit O' Bad Boy
TTITLE2=Surrey Ridge
TTITLE3=It You Hadn't 'A Loved Me
TTITLE4=This One Belongs To Me
TTITLE5=Crazy In The Night
TTITLE6=Through Your Eyes
TTITLE7=Rollin' Wave
TTITLE8=Half-Hearted Moon
TTITLE9=Cousin Blue
TTITLE10=Under The Bridge 
TTITLE11=Mid-Life Chrysler
TTITLE12=Waitin' To Hear From You
EXTD=
EXTT0=
EXTT1=
EXTT2=
EXTT3=
EXTT4=
EXTT5=
EXTT6=
EXTT7=
EXTT8=
EXTT9=
EXTT10=
EXTT11=
EXTT12=
PLAYORDER=
